# Blender v2.59 (sub 0) OBJ File: ''
# www.blender.org
mtllib tile.mtl
o Cube
v 1.000000 -1.000000 -1.000000
v 1.000000 -1.000000 1.000000
v -1.000000 -1.000000 1.000000
v -1.000000 -1.000000 -1.000000
v 1.000000 1.000000 -0.999999
v 0.999999 1.000000 1.000001
v -1.000000 1.000000 1.000000
v -1.000000 1.000000 -1.000000
v 1.000000 -1.000000 -0.878806
v 1.000000 -1.000000 0.878806
v -1.000000 -1.000000 0.878805
v -1.000000 -1.000000 -0.878807
v 1.000000 1.000000 -0.878804
v 1.000000 1.000000 0.878807
v -1.000000 1.000000 0.878805
v -1.000000 1.000000 -0.878806
v 1.000000 -0.851822 -1.000000
v 1.000000 -0.851822 1.000000
v -1.000000 -0.851822 1.000000
v -1.000000 -0.851822 -1.000000
v 1.000000 -0.851822 -0.878805
v 1.000000 -0.851822 0.878806
v -1.000000 -0.851822 0.878805
v -1.000000 -0.851822 -0.878807
vn 0.000000 -1.000000 0.000000
vn 0.000000 1.000000 0.000000
vn -0.000000 0.000000 1.000000
vn 0.000000 0.000000 -1.000000
vn 1.000000 -0.000000 0.000002
vn 1.000000 -0.000000 0.000000
vn 1.000000 0.000000 0.000001
vn -1.000000 -0.000000 -0.000001
vn -1.000000 0.000000 -0.000000
vn 0.000001 0.000000 -1.000000
vn -0.000001 -0.000000 1.000000
g Cube_Cube_Material
usemtl Material
s off
f 1//1 9//1 12//1
f 1//1 12//1 4//1
f 9//1 10//1 11//1
f 9//1 11//1 12//1
f 10//1 2//1 3//1
f 10//1 3//1 11//1
f 8//2 16//2 13//2
f 8//2 13//2 5//2
f 15//2 7//2 6//2
f 15//2 6//2 14//2
f 2//3 18//3 19//3
f 2//3 19//3 3//3
f 18//3 6//3 7//3
f 18//3 7//3 19//3
f 5//4 17//4 20//4
f 5//4 20//4 8//4
f 17//4 1//4 4//4
f 17//4 4//4 20//4
f 13//5 21//5 17//5
f 13//5 17//5 5//5
f 1//6 17//6 21//6
f 1//6 21//6 9//6
f 22//6 10//6 9//6
f 22//6 9//6 21//6
f 6//7 18//7 22//7
f 6//7 22//7 14//7
f 18//6 2//6 10//6
f 18//6 10//6 22//6
f 15//8 23//8 19//8
f 15//8 19//8 7//8
f 23//8 11//8 3//8
f 23//8 3//8 19//8
f 24//9 12//9 11//9
f 24//9 11//9 23//9
f 8//8 20//8 24//8
f 8//8 24//8 16//8
f 20//8 4//8 12//8
f 20//8 12//8 24//8
f 21//2 24//2 23//2
f 21//2 23//2 22//2
f 14//10 22//10 23//10
f 14//10 23//10 15//10
f 13//11 16//11 24//11
f 13//11 24//11 21//11
